<svg xmlns="http://www.w3.org/2000/svg" viewBox="0 0 960 600" width="960" height="600" font-family="Segoe UI,Arial,'Microsoft JhengHei',sans-serif"><rect width="960" height="34" fill="#2B3340"/><circle cx="18" cy="17" r="5" fill="#EF4444"/><circle cx="36" cy="17" r="5" fill="#FACC15"/><circle cx="54" cy="17" r="5" fill="#22C55E"/><text x="78" y="22" fill="#CBD5E1" font-size="13">HyperMesh 2022 — Geometry › Autocleanup</text><defs><linearGradient id="vg" x1="0" y1="0" x2="0" y2="1"><stop offset="0" stop-color="#2A3646"/><stop offset="1" stop-color="#171D27"/></linearGradient></defs><rect y="34" width="960" height="566" fill="url(#vg)"/>
    <g fill="#334155"><rect x="14" y="54" width="34" height="34" rx="5"/><rect x="14" y="100" width="34" height="34" rx="5"/><rect x="14" y="146" width="34" height="34" rx="5"/><rect x="14" y="192" width="34" height="34" rx="5"/><rect x="14" y="238" width="34" height="34" rx="5"/><rect x="14" y="284" width="34" height="34" rx="5"/><rect x="14" y="330" width="34" height="34" rx="5"/><rect x="14" y="376" width="34" height="34" rx="5"/></g><polygon points="90.0,238.0 298.0,190.0 506.0,238.0 298.0,286.0" fill="#5B6F89" stroke="#9DB0C9"/>
    <polygon points="90.0,238.0 298.0,286.0 298.0,430.0 90.0,382.0" fill="#3F5068" stroke="#9DB0C9"/>
    <polygon points="298.0,286.0 506.0,238.0 506.0,382.0 298.0,430.0" fill="#364560" stroke="#9DB0C9"/>
    <ellipse cx="298" cy="238" rx="51.2" ry="18.400000000000002" fill="#1B2431" stroke="#9DB0C9"/><line x1="90.0" y1="262.0" x2="298.0" y2="310.0" stroke="#ffffff14"/><line x1="90.0" y1="286.0" x2="298.0" y2="334.0" stroke="#ffffff14"/><line x1="90.0" y1="310.0" x2="298.0" y2="358.0" stroke="#ffffff14"/><line x1="90.0" y1="334.0" x2="298.0" y2="382.0" stroke="#ffffff14"/><line x1="90.0" y1="358.0" x2="298.0" y2="406.0" stroke="#ffffff14"/><line x1="90.0" y1="238.0" x2="298.0" y2="286.0" stroke="#EF4444" stroke-width="4"  stroke-linecap="round"/><line x1="298.0" y1="286.0" x2="298.0" y2="430.0" stroke="#34D399" stroke-width="2" stroke-dasharray="14 9" stroke-linecap="round"/><line x1="298.0" y1="286.0" x2="506.0" y2="238.0" stroke="#EF4444" stroke-width="4"  stroke-linecap="round"/><line x1="90.0" y1="238.0" x2="90.0" y2="382.0" stroke="#EF4444" stroke-width="4"  stroke-linecap="round"/><line x1="506.0" y1="238.0" x2="506.0" y2="382.0" stroke="#34D399" stroke-width="2"  stroke-linecap="round"/><line x1="90.0" y1="382.0" x2="298.0" y2="430.0" stroke="#EF4444" stroke-width="4"  stroke-linecap="round"/><line x1="298.0" y1="430.0" x2="506.0" y2="382.0" stroke="#34D399" stroke-width="2"  stroke-linecap="round"/>
    <rect x="520" y="70" width="420" height="440" rx="8" fill="#EEF1F5" stroke="#94A3B8"/><rect x="520" y="70" width="420" height="34" rx="8" fill="#334155"/><rect x="520" y="90" width="420" height="14" fill="#334155"/><text x="538" y="93" fill="#F1F5F9" font-size="14" font-weight="600">Geometry › Autocleanup</text>
    <text x="540" y="146" fill="#334155" font-size="13.5">cleanup tol</text><rect x="700" y="126" width="200" height="30" rx="4" fill="#fff" stroke="#EF4444" stroke-width="3"/><text x="712" y="147" fill="#0F172A" font-size="13.5" font-family="Consolas,monospace">0.1</text><text x="540" y="198" fill="#334155" font-size="13.5">feature angle</text><rect x="700" y="178" width="200" height="30" rx="4" fill="#fff" stroke="#94A3B8" stroke-width="1"/><text x="712" y="199" fill="#0F172A" font-size="13.5" font-family="Consolas,monospace">30</text><text x="540" y="250" fill="#334155" font-size="13.5">merge edges</text><rect x="700" y="230" width="200" height="30" rx="4" fill="#fff" stroke="#94A3B8" stroke-width="1"/><text x="712" y="251" fill="#0F172A" font-size="13.5" font-family="Consolas,monospace">on</text>
    <rect x="700" y="302" width="200" height="40" rx="6" fill="#64748B" /><text x="800" y="328" fill="#fff" font-size="15" text-anchor="middle" font-weight="600">cleanup</text>
    <circle cx="916" cy="132" r="15" fill="#EF4444"/><text x="916" y="137" fill="#fff" font-size="15" font-weight="700" text-anchor="middle">1</text><rect x="812" y="572" width="140" height="20" rx="4" fill="rgba(15,23,42,.72)"/><text x="882" y="586" fill="#E2E8F0" font-size="11.5" text-anchor="middle" letter-spacing=".6">MOCK · 示意圖</text></svg>