<svg xmlns="http://www.w3.org/2000/svg" viewBox="0 0 960 600" width="960" height="600" font-family="Segoe UI,Arial,'Microsoft JhengHei',sans-serif"><rect width="960" height="34" fill="#2B3340"/><circle cx="18" cy="17" r="5" fill="#EF4444"/><circle cx="36" cy="17" r="5" fill="#FACC15"/><circle cx="54" cy="17" r="5" fill="#22C55E"/><text x="78" y="22" fill="#CBD5E1" font-size="13">HyperMesh 2022 — Mid-surface / 2D mesh 檢查</text><defs><linearGradient id="vg" x1="0" y1="0" x2="0" y2="1"><stop offset="0" stop-color="#2A3646"/><stop offset="1" stop-color="#171D27"/></linearGradient></defs><rect y="34" width="960" height="566" fill="url(#vg)"/><g transform="matrix(1 -.2 .5 .86 150 250)"><rect x="0" y="0" width="24" height="24" fill="#F59E0B" stroke="#0B1220" stroke-width="1"/><rect x="24" y="0" width="24" height="24" fill="#2F6F5B" stroke="#0B1220" stroke-width="1"/><rect x="48" y="0" width="24" height="24" fill="#2F6F5B" stroke="#0B1220" stroke-width="1"/><rect x="72" y="0" width="24" height="24" fill="#2F6F5B" stroke="#0B1220" stroke-width="1"/><rect x="96" y="0" width="24" height="24" fill="#2F6F5B" stroke="#0B1220" stroke-width="1"/><rect x="120" y="0" width="24" height="24" fill="#2F6F5B" stroke="#0B1220" stroke-width="1"/><rect x="144" y="0" width="24" height="24" fill="#2F6F5B" stroke="#0B1220" stroke-width="1"/><rect x="168" y="0" width="24" height="24" fill="#2F6F5B" stroke="#0B1220" stroke-width="1"/><rect x="192" y="0" width="24" height="24" fill="#2F6F5B" stroke="#0B1220" stroke-width="1"/><rect x="216" y="0" width="24" height="24" fill="#2F6F5B" stroke="#0B1220" stroke-width="1"/><rect x="240" y="0" width="24" height="24" fill="#2F6F5B" stroke="#0B1220" stroke-width="1"/><rect x="264" y="0" width="24" height="24" fill="#2F6F5B" stroke="#0B1220" stroke-width="1"/><rect x="288" y="0" width="24" height="24" fill="#2F6F5B" stroke="#0B1220" stroke-width="1"/><rect x="312" y="0" width="24" height="24" fill="#2F6F5B" stroke="#0B1220" stroke-width="1"/><rect x="336" y="0" width="24" height="24" fill="#2F6F5B" stroke="#0B1220" stroke-width="1"/><rect x="360" y="0" width="24" height="24" fill="#2F6F5B" stroke="#0B1220" stroke-width="1"/><rect x="384" y="0" width="24" height="24" fill="#2F6F5B" stroke="#0B1220" stroke-width="1"/><rect x="408" y="0" width="24" height="24" fill="#2F6F5B" stroke="#0B1220" stroke-width="1"/><rect x="432" y="0" width="24" height="24" fill="#2F6F5B" stroke="#0B1220" stroke-width="1"/><rect x="456" y="0" width="24" height="24" fill="#2F6F5B" stroke="#0B1220" stroke-width="1"/><rect x="0" y="24" width="24" height="24" fill="#2F6F5B" stroke="#0B1220" stroke-width="1"/><rect x="24" y="24" width="24" height="24" fill="#2F6F5B" stroke="#0B1220" stroke-width="1"/><rect x="48" y="24" width="24" height="24" fill="#2F6F5B" stroke="#0B1220" stroke-width="1"/><rect x="72" y="24" width="24" height="24" fill="#2F6F5B" stroke="#0B1220" stroke-width="1"/><rect x="96" y="24" width="24" height="24" fill="#2F6F5B" stroke="#0B1220" stroke-width="1"/><rect x="120" y="24" width="24" height="24" fill="#2F6F5B" stroke="#0B1220" stroke-width="1"/><rect x="144" y="24" width="24" height="24" fill="#2F6F5B" stroke="#0B1220" stroke-width="1"/><rect x="168" y="24" width="24" height="24" fill="#2F6F5B" stroke="#0B1220" stroke-width="1"/><rect x="192" y="24" width="24" height="24" fill="#2F6F5B" stroke="#0B1220" stroke-width="1"/><rect x="216" y="24" width="24" height="24" fill="#2F6F5B" stroke="#0B1220" stroke-width="1"/><rect x="240" y="24" width="24" height="24" fill="#F59E0B" stroke="#0B1220" stroke-width="1"/><rect x="264" y="24" width="24" height="24" fill="#2F6F5B" stroke="#0B1220" stroke-width="1"/><rect x="288" y="24" width="24" height="24" fill="#2F6F5B" stroke="#0B1220" stroke-width="1"/><rect x="312" y="24" width="24" height="24" fill="#2F6F5B" stroke="#0B1220" stroke-width="1"/><rect x="336" y="24" width="24" height="24" fill="#2F6F5B" stroke="#0B1220" stroke-width="1"/><rect x="360" y="24" width="24" height="24" fill="#2F6F5B" stroke="#0B1220" stroke-width="1"/><rect x="384" y="24" width="24" height="24" fill="#2F6F5B" stroke="#0B1220" stroke-width="1"/><rect x="408" y="24" width="24" height="24" fill="#2F6F5B" stroke="#0B1220" stroke-width="1"/><rect x="432" y="24" width="24" height="24" fill="#2F6F5B" stroke="#0B1220" stroke-width="1"/><rect x="456" y="24" width="24" height="24" fill="#2F6F5B" stroke="#0B1220" stroke-width="1"/><rect x="0" y="48" width="24" height="24" fill="#2F6F5B" stroke="#0B1220" stroke-width="1"/><rect x="24" y="48" width="24" height="24" fill="#2F6F5B" stroke="#0B1220" stroke-width="1"/><rect x="48" y="48" width="24" height="24" fill="#2F6F5B" stroke="#0B1220" stroke-width="1"/><rect x="72" y="48" width="24" height="24" fill="#2F6F5B" stroke="#0B1220" stroke-width="1"/><rect x="96" y="48" width="24" height="24" fill="#2F6F5B" stroke="#0B1220" stroke-width="1"/><rect x="120" y="48" width="24" height="24" fill="#2F6F5B" stroke="#0B1220" stroke-width="1"/><rect x="144" y="48" width="24" height="24" fill="#2F6F5B" stroke="#0B1220" stroke-width="1"/><rect x="168" y="48" width="24" height="24" fill="#2F6F5B" stroke="#0B1220" stroke-width="1"/><rect x="192" y="48" width="24" height="24" fill="#2F6F5B" stroke="#0B1220" stroke-width="1"/><rect x="216" y="48" width="24" height="24" fill="#2F6F5B" stroke="#0B1220" stroke-width="1"/><rect x="240" y="48" width="24" height="24" fill="#2F6F5B" stroke="#0B1220" stroke-width="1"/><rect x="264" y="48" width="24" height="24" fill="#2F6F5B" stroke="#0B1220" stroke-width="1"/><rect x="288" y="48" width="24" height="24" fill="#2F6F5B" stroke="#0B1220" stroke-width="1"/><rect x="312" y="48" width="24" height="24" fill="#2F6F5B" stroke="#0B1220" stroke-width="1"/><rect x="336" y="48" width="24" height="24" fill="#2F6F5B" stroke="#0B1220" stroke-width="1"/><rect x="360" y="48" width="24" height="24" fill="#2F6F5B" stroke="#0B1220" stroke-width="1"/><rect x="384" y="48" width="24" height="24" fill="#2F6F5B" stroke="#0B1220" stroke-width="1"/><rect x="408" y="48" width="24" height="24" fill="#2F6F5B" stroke="#0B1220" stroke-width="1"/><rect x="432" y="48" width="24" height="24" fill="#2F6F5B" stroke="#0B1220" stroke-width="1"/><rect x="456" y="48" width="24" height="24" fill="#2F6F5B" stroke="#0B1220" stroke-width="1"/><rect x="0" y="72" width="24" height="24" fill="#2F6F5B" stroke="#0B1220" stroke-width="1"/><rect x="24" y="72" width="24" height="24" fill="#2F6F5B" stroke="#0B1220" stroke-width="1"/><rect x="48" y="72" width="24" height="24" fill="#2F6F5B" stroke="#0B1220" stroke-width="1"/><rect x="72" y="72" width="24" height="24" fill="#2F6F5B" stroke="#0B1220" stroke-width="1"/><rect x="96" y="72" width="24" height="24" fill="#2F6F5B" stroke="#0B1220" stroke-width="1"/><rect x="120" y="72" width="24" height="24" fill="#2F6F5B" stroke="#0B1220" stroke-width="1"/><rect x="144" y="72" width="24" height="24" fill="#2F6F5B" stroke="#0B1220" stroke-width="1"/><rect x="168" y="72" width="24" height="24" fill="#2F6F5B" stroke="#0B1220" stroke-width="1"/><rect x="192" y="72" width="24" height="24" fill="#2F6F5B" stroke="#0B1220" stroke-width="1"/><rect x="216" y="72" width="24" height="24" fill="#2F6F5B" stroke="#0B1220" stroke-width="1"/><rect x="240" y="72" width="24" height="24" fill="#2F6F5B" stroke="#0B1220" stroke-width="1"/><rect x="264" y="72" width="24" height="24" fill="#2F6F5B" stroke="#0B1220" stroke-width="1"/><rect x="288" y="72" width="24" height="24" fill="#2F6F5B" stroke="#0B1220" stroke-width="1"/><rect x="312" y="72" width="24" height="24" fill="#2F6F5B" stroke="#0B1220" stroke-width="1"/><rect x="336" y="72" width="24" height="24" fill="#2F6F5B" stroke="#0B1220" stroke-width="1"/><rect x="360" y="72" width="24" height="24" fill="#2F6F5B" stroke="#0B1220" stroke-width="1"/><rect x="384" y="72" width="24" height="24" fill="#2F6F5B" stroke="#0B1220" stroke-width="1"/><rect x="408" y="72" width="24" height="24" fill="#2F6F5B" stroke="#0B1220" stroke-width="1"/><rect x="432" y="72" width="24" height="24" fill="#2F6F5B" stroke="#0B1220" stroke-width="1"/><rect x="456" y="72" width="24" height="24" fill="#2F6F5B" stroke="#0B1220" stroke-width="1"/><rect x="0" y="96" width="24" height="24" fill="#2F6F5B" stroke="#0B1220" stroke-width="1"/><rect x="24" y="96" width="24" height="24" fill="#2F6F5B" stroke="#0B1220" stroke-width="1"/><rect x="48" y="96" width="24" height="24" fill="#2F6F5B" stroke="#0B1220" stroke-width="1"/><rect x="72" y="96" width="24" height="24" fill="#F59E0B" stroke="#0B1220" stroke-width="1"/><rect x="96" y="96" width="24" height="24" fill="#2F6F5B" stroke="#0B1220" stroke-width="1"/><rect x="120" y="96" width="24" height="24" fill="#2F6F5B" stroke="#0B1220" stroke-width="1"/><rect x="144" y="96" width="24" height="24" fill="#2F6F5B" stroke="#0B1220" stroke-width="1"/><rect x="168" y="96" width="24" height="24" fill="#2F6F5B" stroke="#0B1220" stroke-width="1"/><rect x="192" y="96" width="24" height="24" fill="#2F6F5B" stroke="#0B1220" stroke-width="1"/><rect x="216" y="96" width="24" height="24" fill="#2F6F5B" stroke="#0B1220" stroke-width="1"/><rect x="240" y="96" width="24" height="24" fill="#2F6F5B" stroke="#0B1220" stroke-width="1"/><rect x="264" y="96" width="24" height="24" fill="#2F6F5B" stroke="#0B1220" stroke-width="1"/><rect x="288" y="96" width="24" height="24" fill="#2F6F5B" stroke="#0B1220" stroke-width="1"/><rect x="312" y="96" width="24" height="24" fill="#2F6F5B" stroke="#0B1220" stroke-width="1"/><rect x="336" y="96" width="24" height="24" fill="#2F6F5B" stroke="#0B1220" stroke-width="1"/><rect x="360" y="96" width="24" height="24" fill="#2F6F5B" stroke="#0B1220" stroke-width="1"/><rect x="384" y="96" width="24" height="24" fill="#2F6F5B" stroke="#0B1220" stroke-width="1"/><rect x="408" y="96" width="24" height="24" fill="#2F6F5B" stroke="#0B1220" stroke-width="1"/><rect x="432" y="96" width="24" height="24" fill="#2F6F5B" stroke="#0B1220" stroke-width="1"/><rect x="456" y="96" width="24" height="24" fill="#2F6F5B" stroke="#0B1220" stroke-width="1"/><rect x="0" y="120" width="24" height="24" fill="#2F6F5B" stroke="#0B1220" stroke-width="1"/><rect x="24" y="120" width="24" height="24" fill="#2F6F5B" stroke="#0B1220" stroke-width="1"/><rect x="48" y="120" width="24" height="24" fill="#2F6F5B" stroke="#0B1220" stroke-width="1"/><rect x="72" y="120" width="24" height="24" fill="#2F6F5B" stroke="#0B1220" stroke-width="1"/><rect x="96" y="120" width="24" height="24" fill="#2F6F5B" stroke="#0B1220" stroke-width="1"/><rect x="120" y="120" width="24" height="24" fill="#2F6F5B" stroke="#0B1220" stroke-width="1"/><rect x="144" y="120" width="24" height="24" fill="#2F6F5B" stroke="#0B1220" stroke-width="1"/><rect x="168" y="120" width="24" height="24" fill="#2F6F5B" stroke="#0B1220" stroke-width="1"/><rect x="192" y="120" width="24" height="24" fill="#2F6F5B" stroke="#0B1220" stroke-width="1"/><rect x="216" y="120" width="24" height="24" fill="#2F6F5B" stroke="#0B1220" stroke-width="1"/><rect x="240" y="120" width="24" height="24" fill="#2F6F5B" stroke="#0B1220" stroke-width="1"/><rect x="264" y="120" width="24" height="24" fill="#2F6F5B" stroke="#0B1220" stroke-width="1"/><rect x="288" y="120" width="24" height="24" fill="#2F6F5B" stroke="#0B1220" stroke-width="1"/><rect x="312" y="120" width="24" height="24" fill="#F59E0B" stroke="#0B1220" stroke-width="1"/><rect x="336" y="120" width="24" height="24" fill="#2F6F5B" stroke="#0B1220" stroke-width="1"/><rect x="360" y="120" width="24" height="24" fill="#2F6F5B" stroke="#0B1220" stroke-width="1"/><rect x="384" y="120" width="24" height="24" fill="#2F6F5B" stroke="#0B1220" stroke-width="1"/><rect x="408" y="120" width="24" height="24" fill="#2F6F5B" stroke="#0B1220" stroke-width="1"/><rect x="432" y="120" width="24" height="24" fill="#2F6F5B" stroke="#0B1220" stroke-width="1"/><rect x="456" y="120" width="24" height="24" fill="#2F6F5B" stroke="#0B1220" stroke-width="1"/><rect x="0" y="144" width="24" height="24" fill="#2F6F5B" stroke="#0B1220" stroke-width="1"/><rect x="24" y="144" width="24" height="24" fill="#2F6F5B" stroke="#0B1220" stroke-width="1"/><rect x="48" y="144" width="24" height="24" fill="#2F6F5B" stroke="#0B1220" stroke-width="1"/><rect x="72" y="144" width="24" height="24" fill="#2F6F5B" stroke="#0B1220" stroke-width="1"/><rect x="96" y="144" width="24" height="24" fill="#2F6F5B" stroke="#0B1220" stroke-width="1"/><rect x="120" y="144" width="24" height="24" fill="#2F6F5B" stroke="#0B1220" stroke-width="1"/><rect x="144" y="144" width="24" height="24" fill="#2F6F5B" stroke="#0B1220" stroke-width="1"/><rect x="168" y="144" width="24" height="24" fill="#2F6F5B" stroke="#0B1220" stroke-width="1"/><rect x="192" y="144" width="24" height="24" fill="#2F6F5B" stroke="#0B1220" stroke-width="1"/><rect x="216" y="144" width="24" height="24" fill="#2F6F5B" stroke="#0B1220" stroke-width="1"/><rect x="240" y="144" width="24" height="24" fill="#2F6F5B" stroke="#0B1220" stroke-width="1"/><rect x="264" y="144" width="24" height="24" fill="#2F6F5B" stroke="#0B1220" stroke-width="1"/><rect x="288" y="144" width="24" height="24" fill="#2F6F5B" stroke="#0B1220" stroke-width="1"/><rect x="312" y="144" width="24" height="24" fill="#2F6F5B" stroke="#0B1220" stroke-width="1"/><rect x="336" y="144" width="24" height="24" fill="#2F6F5B" stroke="#0B1220" stroke-width="1"/><rect x="360" y="144" width="24" height="24" fill="#2F6F5B" stroke="#0B1220" stroke-width="1"/><rect x="384" y="144" width="24" height="24" fill="#2F6F5B" stroke="#0B1220" stroke-width="1"/><rect x="408" y="144" width="24" height="24" fill="#2F6F5B" stroke="#0B1220" stroke-width="1"/><rect x="432" y="144" width="24" height="24" fill="#2F6F5B" stroke="#0B1220" stroke-width="1"/><rect x="456" y="144" width="24" height="24" fill="#2F6F5B" stroke="#0B1220" stroke-width="1"/><rect x="0" y="168" width="24" height="24" fill="#2F6F5B" stroke="#0B1220" stroke-width="1"/><rect x="24" y="168" width="24" height="24" fill="#2F6F5B" stroke="#0B1220" stroke-width="1"/><rect x="48" y="168" width="24" height="24" fill="#2F6F5B" stroke="#0B1220" stroke-width="1"/><rect x="72" y="168" width="24" height="24" fill="#2F6F5B" stroke="#0B1220" stroke-width="1"/><rect x="96" y="168" width="24" height="24" fill="#2F6F5B" stroke="#0B1220" stroke-width="1"/><rect x="120" y="168" width="24" height="24" fill="#2F6F5B" stroke="#0B1220" stroke-width="1"/><rect x="144" y="168" width="24" height="24" fill="#2F6F5B" stroke="#0B1220" stroke-width="1"/><rect x="168" y="168" width="24" height="24" fill="#2F6F5B" stroke="#0B1220" stroke-width="1"/><rect x="192" y="168" width="24" height="24" fill="#2F6F5B" stroke="#0B1220" stroke-width="1"/><rect x="216" y="168" width="24" height="24" fill="#2F6F5B" stroke="#0B1220" stroke-width="1"/><rect x="240" y="168" width="24" height="24" fill="#2F6F5B" stroke="#0B1220" stroke-width="1"/><rect x="264" y="168" width="24" height="24" fill="#2F6F5B" stroke="#0B1220" stroke-width="1"/><rect x="288" y="168" width="24" height="24" fill="#2F6F5B" stroke="#0B1220" stroke-width="1"/><rect x="312" y="168" width="24" height="24" fill="#2F6F5B" stroke="#0B1220" stroke-width="1"/><rect x="336" y="168" width="24" height="24" fill="#2F6F5B" stroke="#0B1220" stroke-width="1"/><rect x="360" y="168" width="24" height="24" fill="#2F6F5B" stroke="#0B1220" stroke-width="1"/><rect x="384" y="168" width="24" height="24" fill="#2F6F5B" stroke="#0B1220" stroke-width="1"/><rect x="408" y="168" width="24" height="24" fill="#2F6F5B" stroke="#0B1220" stroke-width="1"/><rect x="432" y="168" width="24" height="24" fill="#2F6F5B" stroke="#0B1220" stroke-width="1"/><rect x="456" y="168" width="24" height="24" fill="#2F6F5B" stroke="#0B1220" stroke-width="1"/><rect x="0" y="192" width="24" height="24" fill="#2F6F5B" stroke="#0B1220" stroke-width="1"/><rect x="24" y="192" width="24" height="24" fill="#2F6F5B" stroke="#0B1220" stroke-width="1"/><rect x="48" y="192" width="24" height="24" fill="#2F6F5B" stroke="#0B1220" stroke-width="1"/><rect x="72" y="192" width="24" height="24" fill="#2F6F5B" stroke="#0B1220" stroke-width="1"/><rect x="96" y="192" width="24" height="24" fill="#2F6F5B" stroke="#0B1220" stroke-width="1"/><rect x="120" y="192" width="24" height="24" fill="#2F6F5B" stroke="#0B1220" stroke-width="1"/><rect x="144" y="192" width="24" height="24" fill="#F59E0B" stroke="#0B1220" stroke-width="1"/><rect x="168" y="192" width="24" height="24" fill="#2F6F5B" stroke="#0B1220" stroke-width="1"/><rect x="192" y="192" width="24" height="24" fill="#2F6F5B" stroke="#0B1220" stroke-width="1"/><rect x="216" y="192" width="24" height="24" fill="#2F6F5B" stroke="#0B1220" stroke-width="1"/><rect x="240" y="192" width="24" height="24" fill="#2F6F5B" stroke="#0B1220" stroke-width="1"/><rect x="264" y="192" width="24" height="24" fill="#2F6F5B" stroke="#0B1220" stroke-width="1"/><rect x="288" y="192" width="24" height="24" fill="#2F6F5B" stroke="#0B1220" stroke-width="1"/><rect x="312" y="192" width="24" height="24" fill="#2F6F5B" stroke="#0B1220" stroke-width="1"/><rect x="336" y="192" width="24" height="24" fill="#2F6F5B" stroke="#0B1220" stroke-width="1"/><rect x="360" y="192" width="24" height="24" fill="#2F6F5B" stroke="#0B1220" stroke-width="1"/><rect x="384" y="192" width="24" height="24" fill="#2F6F5B" stroke="#0B1220" stroke-width="1"/><rect x="408" y="192" width="24" height="24" fill="#2F6F5B" stroke="#0B1220" stroke-width="1"/><rect x="432" y="192" width="24" height="24" fill="#2F6F5B" stroke="#0B1220" stroke-width="1"/><rect x="456" y="192" width="24" height="24" fill="#2F6F5B" stroke="#0B1220" stroke-width="1"/><rect x="0" y="216" width="24" height="24" fill="#2F6F5B" stroke="#0B1220" stroke-width="1"/><rect x="24" y="216" width="24" height="24" fill="#2F6F5B" stroke="#0B1220" stroke-width="1"/><rect x="48" y="216" width="24" height="24" fill="#2F6F5B" stroke="#0B1220" stroke-width="1"/><rect x="72" y="216" width="24" height="24" fill="#2F6F5B" stroke="#0B1220" stroke-width="1"/><rect x="96" y="216" width="24" height="24" fill="#2F6F5B" stroke="#0B1220" stroke-width="1"/><rect x="120" y="216" width="24" height="24" fill="#2F6F5B" stroke="#0B1220" stroke-width="1"/><rect x="144" y="216" width="24" height="24" fill="#2F6F5B" stroke="#0B1220" stroke-width="1"/><rect x="168" y="216" width="24" height="24" fill="#2F6F5B" stroke="#0B1220" stroke-width="1"/><rect x="192" y="216" width="24" height="24" fill="#2F6F5B" stroke="#0B1220" stroke-width="1"/><rect x="216" y="216" width="24" height="24" fill="#2F6F5B" stroke="#0B1220" stroke-width="1"/><rect x="240" y="216" width="24" height="24" fill="#2F6F5B" stroke="#0B1220" stroke-width="1"/><rect x="264" y="216" width="24" height="24" fill="#2F6F5B" stroke="#0B1220" stroke-width="1"/><rect x="288" y="216" width="24" height="24" fill="#2F6F5B" stroke="#0B1220" stroke-width="1"/><rect x="312" y="216" width="24" height="24" fill="#2F6F5B" stroke="#0B1220" stroke-width="1"/><rect x="336" y="216" width="24" height="24" fill="#2F6F5B" stroke="#0B1220" stroke-width="1"/><rect x="360" y="216" width="24" height="24" fill="#2F6F5B" stroke="#0B1220" stroke-width="1"/><rect x="384" y="216" width="24" height="24" fill="#F59E0B" stroke="#0B1220" stroke-width="1"/><rect x="408" y="216" width="24" height="24" fill="#2F6F5B" stroke="#0B1220" stroke-width="1"/><rect x="432" y="216" width="24" height="24" fill="#2F6F5B" stroke="#0B1220" stroke-width="1"/><rect x="456" y="216" width="24" height="24" fill="#2F6F5B" stroke="#0B1220" stroke-width="1"/><rect x="0" y="240" width="24" height="24" fill="#2F6F5B" stroke="#0B1220" stroke-width="1"/><rect x="24" y="240" width="24" height="24" fill="#2F6F5B" stroke="#0B1220" stroke-width="1"/><rect x="48" y="240" width="24" height="24" fill="#2F6F5B" stroke="#0B1220" stroke-width="1"/><rect x="72" y="240" width="24" height="24" fill="#2F6F5B" stroke="#0B1220" stroke-width="1"/><rect x="96" y="240" width="24" height="24" fill="#2F6F5B" stroke="#0B1220" stroke-width="1"/><rect x="120" y="240" width="24" height="24" fill="#2F6F5B" stroke="#0B1220" stroke-width="1"/><rect x="144" y="240" width="24" height="24" fill="#2F6F5B" stroke="#0B1220" stroke-width="1"/><rect x="168" y="240" width="24" height="24" fill="#2F6F5B" stroke="#0B1220" stroke-width="1"/><rect x="192" y="240" width="24" height="24" fill="#2F6F5B" stroke="#0B1220" stroke-width="1"/><rect x="216" y="240" width="24" height="24" fill="#2F6F5B" stroke="#0B1220" stroke-width="1"/><rect x="240" y="240" width="24" height="24" fill="#2F6F5B" stroke="#0B1220" stroke-width="1"/><rect x="264" y="240" width="24" height="24" fill="#2F6F5B" stroke="#0B1220" stroke-width="1"/><rect x="288" y="240" width="24" height="24" fill="#2F6F5B" stroke="#0B1220" stroke-width="1"/><rect x="312" y="240" width="24" height="24" fill="#2F6F5B" stroke="#0B1220" stroke-width="1"/><rect x="336" y="240" width="24" height="24" fill="#2F6F5B" stroke="#0B1220" stroke-width="1"/><rect x="360" y="240" width="24" height="24" fill="#2F6F5B" stroke="#0B1220" stroke-width="1"/><rect x="384" y="240" width="24" height="24" fill="#2F6F5B" stroke="#0B1220" stroke-width="1"/><rect x="408" y="240" width="24" height="24" fill="#2F6F5B" stroke="#0B1220" stroke-width="1"/><rect x="432" y="240" width="24" height="24" fill="#2F6F5B" stroke="#0B1220" stroke-width="1"/><rect x="456" y="240" width="24" height="24" fill="#2F6F5B" stroke="#0B1220" stroke-width="1"/><rect x="0" y="264" width="24" height="24" fill="#2F6F5B" stroke="#0B1220" stroke-width="1"/><rect x="24" y="264" width="24" height="24" fill="#2F6F5B" stroke="#0B1220" stroke-width="1"/><rect x="48" y="264" width="24" height="24" fill="#2F6F5B" stroke="#0B1220" stroke-width="1"/><rect x="72" y="264" width="24" height="24" fill="#2F6F5B" stroke="#0B1220" stroke-width="1"/><rect x="96" y="264" width="24" height="24" fill="#2F6F5B" stroke="#0B1220" stroke-width="1"/><rect x="120" y="264" width="24" height="24" fill="#2F6F5B" stroke="#0B1220" stroke-width="1"/><rect x="144" y="264" width="24" height="24" fill="#2F6F5B" stroke="#0B1220" stroke-width="1"/><rect x="168" y="264" width="24" height="24" fill="#2F6F5B" stroke="#0B1220" stroke-width="1"/><rect x="192" y="264" width="24" height="24" fill="#2F6F5B" stroke="#0B1220" stroke-width="1"/><rect x="216" y="264" width="24" height="24" fill="#2F6F5B" stroke="#0B1220" stroke-width="1"/><rect x="240" y="264" width="24" height="24" fill="#2F6F5B" stroke="#0B1220" stroke-width="1"/><rect x="264" y="264" width="24" height="24" fill="#2F6F5B" stroke="#0B1220" stroke-width="1"/><rect x="288" y="264" width="24" height="24" fill="#2F6F5B" stroke="#0B1220" stroke-width="1"/><rect x="312" y="264" width="24" height="24" fill="#2F6F5B" stroke="#0B1220" stroke-width="1"/><rect x="336" y="264" width="24" height="24" fill="#2F6F5B" stroke="#0B1220" stroke-width="1"/><rect x="360" y="264" width="24" height="24" fill="#2F6F5B" stroke="#0B1220" stroke-width="1"/><rect x="384" y="264" width="24" height="24" fill="#2F6F5B" stroke="#0B1220" stroke-width="1"/><rect x="408" y="264" width="24" height="24" fill="#2F6F5B" stroke="#0B1220" stroke-width="1"/><rect x="432" y="264" width="24" height="24" fill="#2F6F5B" stroke="#0B1220" stroke-width="1"/><rect x="456" y="264" width="24" height="24" fill="#2F6F5B" stroke="#0B1220" stroke-width="1"/></g>
    <rect x="24" y="52" width="230" height="70" rx="8" fill="#0F172Acc" stroke="#334155"/><text x="40" y="78" fill="#F8FAFC" font-size="14" font-weight="600">Element quality</text><text x="40" y="102" fill="#94A3B8" font-size="12.5">Jacobian ≥ 0.6：99.1%　Warp 通過</text><rect x="812" y="572" width="140" height="20" rx="4" fill="rgba(15,23,42,.72)"/><text x="882" y="586" fill="#E2E8F0" font-size="11.5" text-anchor="middle" letter-spacing=".6">MOCK · 示意圖</text></svg>