<svg xmlns="http://www.w3.org/2000/svg" viewBox="0 0 960 600" width="960" height="600" font-family="Segoe UI,Arial,'Microsoft JhengHei',sans-serif"><rect width="960" height="34" fill="#2B3340"/><circle cx="18" cy="17" r="5" fill="#EF4444"/><circle cx="36" cy="17" r="5" fill="#FACC15"/><circle cx="54" cy="17" r="5" fill="#22C55E"/><text x="78" y="22" fill="#CBD5E1" font-size="13">HyperMesh 2022 — 修補前 / 修補後</text><defs><linearGradient id="vg" x1="0" y1="0" x2="0" y2="1"><stop offset="0" stop-color="#2A3646"/><stop offset="1" stop-color="#171D27"/></linearGradient></defs><rect y="34" width="960" height="566" fill="url(#vg)"/><line x1="480" y1="34" x2="480" y2="600" stroke="#475569" stroke-dasharray="6 6"/>
    <polygon points="28.0,199.2 241.2,150.0 454.4,199.2 241.2,248.4" fill="#5B6F89" stroke="#9DB0C9"/>
    <polygon points="28.0,199.2 241.2,248.4 241.2,396.0 28.0,346.8" fill="#3F5068" stroke="#9DB0C9"/>
    <polygon points="241.2,248.4 454.4,199.2 454.4,346.8 241.2,396.0" fill="#364560" stroke="#9DB0C9"/>
    <ellipse cx="241.2" cy="199.2" rx="52.48" ry="18.86" fill="#1B2431" stroke="#9DB0C9"/><line x1="28.0" y1="223.8" x2="241.2" y2="273.0" stroke="#ffffff14"/><line x1="28.0" y1="248.4" x2="241.2" y2="297.6" stroke="#ffffff14"/><line x1="28.0" y1="273.0" x2="241.2" y2="322.2" stroke="#ffffff14"/><line x1="28.0" y1="297.6" x2="241.2" y2="346.8" stroke="#ffffff14"/><line x1="28.0" y1="322.2" x2="241.2" y2="371.4" stroke="#ffffff14"/><line x1="28.0" y1="199.2" x2="241.2" y2="248.4" stroke="#EF4444" stroke-width="4"  stroke-linecap="round"/><line x1="241.2" y1="248.4" x2="241.2" y2="396.0" stroke="#EF4444" stroke-width="4"  stroke-linecap="round"/><line x1="241.2" y1="248.4" x2="454.4" y2="199.2" stroke="#EF4444" stroke-width="4"  stroke-linecap="round"/><line x1="28.0" y1="199.2" x2="28.0" y2="346.8" stroke="#EF4444" stroke-width="4"  stroke-linecap="round"/><line x1="454.4" y1="199.2" x2="454.4" y2="346.8" stroke="#EF4444" stroke-width="4"  stroke-linecap="round"/><line x1="28.0" y1="346.8" x2="241.2" y2="396.0" stroke="#EF4444" stroke-width="4"  stroke-linecap="round"/><line x1="241.2" y1="396.0" x2="454.4" y2="346.8" stroke="#EF4444" stroke-width="4"  stroke-linecap="round"/><polygon points="508.0,199.2 721.2,150.0 934.4,199.2 721.2,248.4" fill="#5B6F89" stroke="#9DB0C9"/>
    <polygon points="508.0,199.2 721.2,248.4 721.2,396.0 508.0,346.8" fill="#3F5068" stroke="#9DB0C9"/>
    <polygon points="721.2,248.4 934.4,199.2 934.4,346.8 721.2,396.0" fill="#364560" stroke="#9DB0C9"/>
    <ellipse cx="721.2" cy="199.2" rx="52.48" ry="18.86" fill="#1B2431" stroke="#9DB0C9"/><line x1="508.0" y1="223.8" x2="721.2" y2="273.0" stroke="#ffffff14"/><line x1="508.0" y1="248.4" x2="721.2" y2="297.6" stroke="#ffffff14"/><line x1="508.0" y1="273.0" x2="721.2" y2="322.2" stroke="#ffffff14"/><line x1="508.0" y1="297.6" x2="721.2" y2="346.8" stroke="#ffffff14"/><line x1="508.0" y1="322.2" x2="721.2" y2="371.4" stroke="#ffffff14"/><line x1="508.0" y1="199.2" x2="721.2" y2="248.4" stroke="#34D399" stroke-width="2"  stroke-linecap="round"/><line x1="721.2" y1="248.4" x2="721.2" y2="396.0" stroke="#34D399" stroke-width="2"  stroke-linecap="round"/><line x1="721.2" y1="248.4" x2="934.4" y2="199.2" stroke="#34D399" stroke-width="2"  stroke-linecap="round"/><line x1="508.0" y1="199.2" x2="508.0" y2="346.8" stroke="#34D399" stroke-width="2"  stroke-linecap="round"/><line x1="934.4" y1="199.2" x2="934.4" y2="346.8" stroke="#34D399" stroke-width="2"  stroke-linecap="round"/><line x1="508.0" y1="346.8" x2="721.2" y2="396.0" stroke="#34D399" stroke-width="2" stroke-dasharray="14 9" stroke-linecap="round"/><line x1="721.2" y1="396.0" x2="934.4" y2="346.8" stroke="#34D399" stroke-width="2"  stroke-linecap="round"/>
    <rect x="28" y="54" width="220" height="32" rx="6" fill="#B91C1C"/><text x="44" y="75" fill="#fff" font-size="14" font-weight="600">修補前　120 free</text>
    <rect x="508" y="54" width="220" height="32" rx="6" fill="#047857"/><text x="524" y="75" fill="#fff" font-size="14" font-weight="600">修補後　2 free</text><rect x="812" y="572" width="140" height="20" rx="4" fill="rgba(15,23,42,.72)"/><text x="882" y="586" fill="#E2E8F0" font-size="11.5" text-anchor="middle" letter-spacing=".6">MOCK · 示意圖</text></svg>